ISO-10303-21;
HEADER;
/* Generated by software containing ST-Developer
 * from STEP Tools, Inc. (www.steptools.com) 
 */

FILE_DESCRIPTION(
/* description */ (''),
/* implementation_level */ '2;1');

FILE_NAME(
/* name */ 'RPS dial.step',
/* time_stamp */ '2026-08-23T11:30:54-07:00',
/* author */ (''),
/* organization */ (''),
/* preprocessor_version */ 'ST-DEVELOPER v20.1',
/* originating_system */ 'Autodesk Translation Framework v15.8.0.0',
/* authorisation */ '');

FILE_SCHEMA (('AUTOMOTIVE_DESIGN { 1 0 10303 214 3 1 1 }'));
ENDSEC;

DATA;
#10=MECHANICAL_DESIGN_GEOMETRIC_PRESENTATION_REPRESENTATION('',(#13),#226);
#11=SHAPE_REPRESENTATION_RELATIONSHIP('SRR','None',#233,#12);
#12=ADVANCED_BREP_SHAPE_REPRESENTATION('',(#14),#225);
#13=STYLED_ITEM('',(#282),#14);
#14=MANIFOLD_SOLID_BREP('Dial',#126);
#15=FACE_BOUND('',#34,.T.);
#16=FACE_BOUND('',#36,.T.);
#17=PLANE('',#143);
#18=PLANE('',#147);
#19=PLANE('',#151);
#20=PLANE('',#152);
#21=FACE_OUTER_BOUND('',#28,.T.);
#22=FACE_OUTER_BOUND('',#29,.T.);
#23=FACE_OUTER_BOUND('',#30,.T.);
#24=FACE_OUTER_BOUND('',#31,.T.);
#25=FACE_OUTER_BOUND('',#32,.T.);
#26=FACE_OUTER_BOUND('',#33,.T.);
#27=FACE_OUTER_BOUND('',#35,.T.);
#28=EDGE_LOOP('',(#86,#87,#88,#89));
#29=EDGE_LOOP('',(#90,#91,#92,#93));
#30=EDGE_LOOP('',(#94,#95,#96,#97));
#31=EDGE_LOOP('',(#98,#99,#100,#101));
#32=EDGE_LOOP('',(#102,#103,#104,#105));
#33=EDGE_LOOP('',(#106,#107,#108,#109));
#34=EDGE_LOOP('',(#110));
#35=EDGE_LOOP('',(#111,#112,#113,#114));
#36=EDGE_LOOP('',(#115));
#37=LINE('',#195,#46);
#38=LINE('',#200,#47);
#39=LINE('',#202,#48);
#40=LINE('',#204,#49);
#41=LINE('',#205,#50);
#42=LINE('',#211,#51);
#43=LINE('',#214,#52);
#44=LINE('',#216,#53);
#45=LINE('',#217,#54);
#46=VECTOR('',#159,2.5);
#47=VECTOR('',#164,10.);
#48=VECTOR('',#165,10.);
#49=VECTOR('',#166,10.);
#50=VECTOR('',#167,10.);
#51=VECTOR('',#174,10.);
#52=VECTOR('',#177,10.);
#53=VECTOR('',#178,10.);
#54=VECTOR('',#179,10.);
#55=CIRCLE('',#141,2.5);
#56=CIRCLE('',#142,2.5);
#57=CIRCLE('',#145,5.00000000000001);
#58=CIRCLE('',#146,5.00000000000001);
#59=CIRCLE('',#149,3.75);
#60=CIRCLE('',#150,3.75);
#61=VERTEX_POINT('',#192);
#62=VERTEX_POINT('',#194);
#63=VERTEX_POINT('',#198);
#64=VERTEX_POINT('',#199);
#65=VERTEX_POINT('',#201);
#66=VERTEX_POINT('',#203);
#67=VERTEX_POINT('',#207);
#68=VERTEX_POINT('',#209);
#69=VERTEX_POINT('',#213);
#70=VERTEX_POINT('',#215);
#71=EDGE_CURVE('',#61,#61,#55,.T.);
#72=EDGE_CURVE('',#61,#62,#37,.T.);
#73=EDGE_CURVE('',#62,#62,#56,.T.);
#74=EDGE_CURVE('',#63,#64,#38,.T.);
#75=EDGE_CURVE('',#63,#65,#39,.T.);
#76=EDGE_CURVE('',#66,#65,#40,.T.);
#77=EDGE_CURVE('',#64,#66,#41,.T.);
#78=EDGE_CURVE('',#64,#67,#57,.T.);
#79=EDGE_CURVE('',#68,#66,#58,.T.);
#80=EDGE_CURVE('',#67,#68,#42,.T.);
#81=EDGE_CURVE('',#69,#67,#43,.T.);
#82=EDGE_CURVE('',#70,#68,#44,.T.);
#83=EDGE_CURVE('',#69,#70,#45,.T.);
#84=EDGE_CURVE('',#69,#63,#59,.T.);
#85=EDGE_CURVE('',#65,#70,#60,.T.);
#86=ORIENTED_EDGE('',*,*,#71,.F.);
#87=ORIENTED_EDGE('',*,*,#72,.T.);
#88=ORIENTED_EDGE('',*,*,#73,.F.);
#89=ORIENTED_EDGE('',*,*,#72,.F.);
#90=ORIENTED_EDGE('',*,*,#74,.F.);
#91=ORIENTED_EDGE('',*,*,#75,.T.);
#92=ORIENTED_EDGE('',*,*,#76,.F.);
#93=ORIENTED_EDGE('',*,*,#77,.F.);
#94=ORIENTED_EDGE('',*,*,#78,.F.);
#95=ORIENTED_EDGE('',*,*,#77,.T.);
#96=ORIENTED_EDGE('',*,*,#79,.F.);
#97=ORIENTED_EDGE('',*,*,#80,.F.);
#98=ORIENTED_EDGE('',*,*,#81,.T.);
#99=ORIENTED_EDGE('',*,*,#80,.T.);
#100=ORIENTED_EDGE('',*,*,#82,.F.);
#101=ORIENTED_EDGE('',*,*,#83,.F.);
#102=ORIENTED_EDGE('',*,*,#84,.F.);
#103=ORIENTED_EDGE('',*,*,#83,.T.);
#104=ORIENTED_EDGE('',*,*,#85,.F.);
#105=ORIENTED_EDGE('',*,*,#75,.F.);
#106=ORIENTED_EDGE('',*,*,#84,.T.);
#107=ORIENTED_EDGE('',*,*,#74,.T.);
#108=ORIENTED_EDGE('',*,*,#78,.T.);
#109=ORIENTED_EDGE('',*,*,#81,.F.);
#110=ORIENTED_EDGE('',*,*,#73,.T.);
#111=ORIENTED_EDGE('',*,*,#85,.T.);
#112=ORIENTED_EDGE('',*,*,#82,.T.);
#113=ORIENTED_EDGE('',*,*,#79,.T.);
#114=ORIENTED_EDGE('',*,*,#76,.T.);
#115=ORIENTED_EDGE('',*,*,#71,.T.);
#116=CYLINDRICAL_SURFACE('',#140,2.5);
#117=CYLINDRICAL_SURFACE('',#144,5.);
#118=CYLINDRICAL_SURFACE('',#148,3.75);
#119=ADVANCED_FACE('',(#21),#116,.F.);
#120=ADVANCED_FACE('',(#22),#17,.T.);
#121=ADVANCED_FACE('',(#23),#117,.T.);
#122=ADVANCED_FACE('',(#24),#18,.T.);
#123=ADVANCED_FACE('',(#25),#118,.T.);
#124=ADVANCED_FACE('',(#26,#15),#19,.T.);
#125=ADVANCED_FACE('',(#27,#16),#20,.F.);
#126=CLOSED_SHELL('',(#119,#120,#121,#122,#123,#124,#125));
#127=DERIVED_UNIT_ELEMENT(#129,1.);
#128=DERIVED_UNIT_ELEMENT(#228,-3.);
#129=(
MASS_UNIT()
NAMED_UNIT(*)
SI_UNIT(.KILO.,.GRAM.)
);
#130=DERIVED_UNIT((#127,#128));
#131=MEASURE_REPRESENTATION_ITEM('density measure',
POSITIVE_RATIO_MEASURE(7850.),#130);
#132=PROPERTY_DEFINITION_REPRESENTATION(#137,#134);
#133=PROPERTY_DEFINITION_REPRESENTATION(#138,#135);
#134=REPRESENTATION('material name',(#136),#225);
#135=REPRESENTATION('density',(#131),#225);
#136=DESCRIPTIVE_REPRESENTATION_ITEM('Steel','Steel');
#137=PROPERTY_DEFINITION('material property','material name',#235);
#138=PROPERTY_DEFINITION('material property','density of part',#235);
#139=AXIS2_PLACEMENT_3D('',#190,#153,#154);
#140=AXIS2_PLACEMENT_3D('',#191,#155,#156);
#141=AXIS2_PLACEMENT_3D('',#193,#157,#158);
#142=AXIS2_PLACEMENT_3D('',#196,#160,#161);
#143=AXIS2_PLACEMENT_3D('',#197,#162,#163);
#144=AXIS2_PLACEMENT_3D('',#206,#168,#169);
#145=AXIS2_PLACEMENT_3D('',#208,#170,#171);
#146=AXIS2_PLACEMENT_3D('',#210,#172,#173);
#147=AXIS2_PLACEMENT_3D('',#212,#175,#176);
#148=AXIS2_PLACEMENT_3D('',#218,#180,#181);
#149=AXIS2_PLACEMENT_3D('',#219,#182,#183);
#150=AXIS2_PLACEMENT_3D('',#220,#184,#185);
#151=AXIS2_PLACEMENT_3D('',#221,#186,#187);
#152=AXIS2_PLACEMENT_3D('',#222,#188,#189);
#153=DIRECTION('axis',(0.,0.,1.));
#154=DIRECTION('refdir',(1.,0.,0.));
#155=DIRECTION('center_axis',(0.,0.,-1.));
#156=DIRECTION('ref_axis',(-1.,0.,0.));
#157=DIRECTION('center_axis',(0.,0.,1.));
#158=DIRECTION('ref_axis',(-1.,0.,0.));
#159=DIRECTION('',(0.,0.,1.));
#160=DIRECTION('center_axis',(0.,0.,-1.));
#161=DIRECTION('ref_axis',(-1.,0.,0.));
#162=DIRECTION('center_axis',(-0.0625000000000002,-0.998044963916957,0.));
#163=DIRECTION('ref_axis',(-0.998044963916957,0.0625000000000002,0.));
#164=DIRECTION('',(0.998044963916957,-0.0625000000000002,0.));
#165=DIRECTION('',(0.,0.,-1.));
#166=DIRECTION('',(-0.998044963916957,0.0625000000000002,0.));
#167=DIRECTION('',(0.,0.,-1.));
#168=DIRECTION('center_axis',(0.,0.,-1.));
#169=DIRECTION('ref_axis',(1.,-9.9920072216264E-16,0.));
#170=DIRECTION('center_axis',(0.,0.,1.));
#171=DIRECTION('ref_axis',(-0.0624999999999999,-0.998044963916957,0.));
#172=DIRECTION('center_axis',(0.,0.,-1.));
#173=DIRECTION('ref_axis',(-0.0624999999999999,-0.998044963916957,0.));
#174=DIRECTION('',(0.,0.,-1.));
#175=DIRECTION('center_axis',(-0.0624999999999998,0.998044963916957,0.));
#176=DIRECTION('ref_axis',(0.998044963916957,0.0624999999999998,0.));
#177=DIRECTION('',(0.998044963916957,0.0624999999999998,0.));
#178=DIRECTION('',(0.998044963916957,0.0624999999999998,0.));
#179=DIRECTION('',(0.,0.,-1.));
#180=DIRECTION('center_axis',(0.,0.,-1.));
#181=DIRECTION('ref_axis',(-0.0624999999999999,0.998044963916957,0.));
#182=DIRECTION('center_axis',(0.,0.,1.));
#183=DIRECTION('ref_axis',(-0.0624999999999999,0.998044963916957,0.));
#184=DIRECTION('center_axis',(0.,0.,-1.));
#185=DIRECTION('ref_axis',(-0.0624999999999999,0.998044963916957,0.));
#186=DIRECTION('center_axis',(0.,0.,1.));
#187=DIRECTION('ref_axis',(-1.,0.,0.));
#188=DIRECTION('center_axis',(0.,0.,1.));
#189=DIRECTION('ref_axis',(-1.,0.,0.));
#190=CARTESIAN_POINT('',(0.,0.,0.));
#191=CARTESIAN_POINT('Origin',(42.0004196703471,28.3400001526101,39.0803316754059));
#192=CARTESIAN_POINT('',(44.5004196703471,28.3400001526101,37.0803316754059));
#193=CARTESIAN_POINT('Origin',(42.0004196703471,28.3400001526101,37.0803316754059));
#194=CARTESIAN_POINT('',(44.5004196703471,28.3400001526101,39.0803316754059));
#195=CARTESIAN_POINT('',(44.5004196703471,28.3400001526101,39.0803316754059));
#196=CARTESIAN_POINT('Origin',(42.0004196703471,28.3400001526101,39.0803316754059));
#197=CARTESIAN_POINT('Origin',(41.6879196703471,23.3497753330253,39.0803316754059));
#198=CARTESIAN_POINT('',(21.7660446703471,24.5973315379215,39.0803316754059));
#199=CARTESIAN_POINT('',(41.6879196703471,23.3497753330253,39.0803316754059));
#200=CARTESIAN_POINT('',(21.7660446703471,24.5973315379215,39.0803316754059));
#201=CARTESIAN_POINT('',(21.7660446703471,24.5973315379215,37.0803316754059));
#202=CARTESIAN_POINT('',(21.7660446703471,24.5973315379215,39.0803316754059));
#203=CARTESIAN_POINT('',(41.6879196703471,23.3497753330253,37.0803316754059));
#204=CARTESIAN_POINT('',(21.7660446703471,24.5973315379215,37.0803316754059));
#205=CARTESIAN_POINT('',(41.6879196703471,23.3497753330253,39.0803316754059));
#206=CARTESIAN_POINT('Origin',(42.0004196703471,28.3400001526101,39.0803316754059));
#207=CARTESIAN_POINT('',(41.6879196703471,33.3302249721949,39.0803316754059));
#208=CARTESIAN_POINT('Origin',(42.0004196703471,28.3400001526101,39.0803316754059));
#209=CARTESIAN_POINT('',(41.6879196703471,33.3302249721949,37.0803316754059));
#210=CARTESIAN_POINT('Origin',(42.0004196703471,28.3400001526101,37.0803316754059));
#211=CARTESIAN_POINT('',(41.6879196703471,33.3302249721949,39.0803316754059));
#212=CARTESIAN_POINT('Origin',(21.7660446703471,32.0826687672987,39.0803316754059));
#213=CARTESIAN_POINT('',(21.7660446703471,32.0826687672987,39.0803316754059));
#214=CARTESIAN_POINT('',(21.7660446703471,32.0826687672987,39.0803316754059));
#215=CARTESIAN_POINT('',(21.7660446703471,32.0826687672987,37.0803316754059));
#216=CARTESIAN_POINT('',(21.7660446703471,32.0826687672987,37.0803316754059));
#217=CARTESIAN_POINT('',(21.7660446703471,32.0826687672987,39.0803316754059));
#218=CARTESIAN_POINT('Origin',(22.0004196703471,28.3400001526101,39.0803316754059));
#219=CARTESIAN_POINT('Origin',(22.0004196703471,28.3400001526101,39.0803316754059));
#220=CARTESIAN_POINT('Origin',(22.0004196703471,28.3400001526101,37.0803316754059));
#221=CARTESIAN_POINT('Origin',(32.6254196703471,28.3400001526101,39.0803316754059));
#222=CARTESIAN_POINT('Origin',(32.6254196703471,28.3400001526101,37.0803316754059));
#223=UNCERTAINTY_MEASURE_WITH_UNIT(LENGTH_MEASURE(0.01),#227,
'DISTANCE_ACCURACY_VALUE',
'Maximum model space distance between geometric entities at asserted c
onnectivities');
#224=UNCERTAINTY_MEASURE_WITH_UNIT(LENGTH_MEASURE(0.01),#227,
'DISTANCE_ACCURACY_VALUE',
'Maximum model space distance between geometric entities at asserted c
onnectivities');
#225=(
GEOMETRIC_REPRESENTATION_CONTEXT(3)
GLOBAL_UNCERTAINTY_ASSIGNED_CONTEXT((#223))
GLOBAL_UNIT_ASSIGNED_CONTEXT((#227,#229,#230))
REPRESENTATION_CONTEXT('','3D')
);
#226=(
GEOMETRIC_REPRESENTATION_CONTEXT(3)
GLOBAL_UNCERTAINTY_ASSIGNED_CONTEXT((#224))
GLOBAL_UNIT_ASSIGNED_CONTEXT((#227,#229,#230))
REPRESENTATION_CONTEXT('','3D')
);
#227=(
LENGTH_UNIT()
NAMED_UNIT(*)
SI_UNIT(.MILLI.,.METRE.)
);
#228=(
LENGTH_UNIT()
NAMED_UNIT(*)
SI_UNIT($,.METRE.)
);
#229=(
NAMED_UNIT(*)
PLANE_ANGLE_UNIT()
SI_UNIT($,.RADIAN.)
);
#230=(
NAMED_UNIT(*)
SI_UNIT($,.STERADIAN.)
SOLID_ANGLE_UNIT()
);
#231=SHAPE_DEFINITION_REPRESENTATION(#232,#233);
#232=PRODUCT_DEFINITION_SHAPE('',$,#235);
#233=SHAPE_REPRESENTATION('',(#139),#225);
#234=PRODUCT_DEFINITION_CONTEXT('part definition',#239,'design');
#235=PRODUCT_DEFINITION('2026-08-21-18-26-24-311','RPS v9',#236,#234);
#236=PRODUCT_DEFINITION_FORMATION('',$,#241);
#237=PRODUCT_RELATED_PRODUCT_CATEGORY('RPS v9','RPS v9',(#241));
#238=APPLICATION_PROTOCOL_DEFINITION('international standard',
'automotive_design',2009,#239);
#239=APPLICATION_CONTEXT(
'Core Data for Automotive Mechanical Design Process');
#240=PRODUCT_CONTEXT('part definition',#239,'mechanical');
#241=PRODUCT('2026-08-21-18-26-24-311','RPS v9',$,(#240));
#242=PRESENTATION_STYLE_ASSIGNMENT((#283));
#243=PRESENTATION_STYLE_ASSIGNMENT((#284));
#244=PRESENTATION_STYLE_ASSIGNMENT((#285));
#245=PRESENTATION_STYLE_ASSIGNMENT((#286));
#246=PRESENTATION_STYLE_ASSIGNMENT((#287));
#247=PRESENTATION_STYLE_ASSIGNMENT((#288));
#248=PRESENTATION_STYLE_ASSIGNMENT((#289));
#249=PRESENTATION_STYLE_ASSIGNMENT((#290));
#250=PRESENTATION_STYLE_ASSIGNMENT((#291));
#251=PRESENTATION_STYLE_ASSIGNMENT((#292));
#252=PRESENTATION_STYLE_ASSIGNMENT((#293));
#253=PRESENTATION_STYLE_ASSIGNMENT((#294));
#254=PRESENTATION_STYLE_ASSIGNMENT((#295));
#255=PRESENTATION_STYLE_ASSIGNMENT((#296));
#256=PRESENTATION_STYLE_ASSIGNMENT((#297));
#257=PRESENTATION_STYLE_ASSIGNMENT((#298));
#258=PRESENTATION_STYLE_ASSIGNMENT((#299));
#259=PRESENTATION_STYLE_ASSIGNMENT((#300));
#260=PRESENTATION_STYLE_ASSIGNMENT((#301));
#261=PRESENTATION_STYLE_ASSIGNMENT((#302));
#262=PRESENTATION_STYLE_ASSIGNMENT((#303));
#263=PRESENTATION_STYLE_ASSIGNMENT((#304));
#264=PRESENTATION_STYLE_ASSIGNMENT((#305));
#265=PRESENTATION_STYLE_ASSIGNMENT((#306));
#266=PRESENTATION_STYLE_ASSIGNMENT((#307));
#267=PRESENTATION_STYLE_ASSIGNMENT((#308));
#268=PRESENTATION_STYLE_ASSIGNMENT((#309));
#269=PRESENTATION_STYLE_ASSIGNMENT((#310));
#270=PRESENTATION_STYLE_ASSIGNMENT((#311));
#271=PRESENTATION_STYLE_ASSIGNMENT((#312));
#272=PRESENTATION_STYLE_ASSIGNMENT((#313));
#273=PRESENTATION_STYLE_ASSIGNMENT((#314));
#274=PRESENTATION_STYLE_ASSIGNMENT((#315));
#275=PRESENTATION_STYLE_ASSIGNMENT((#316));
#276=PRESENTATION_STYLE_ASSIGNMENT((#317));
#277=PRESENTATION_STYLE_ASSIGNMENT((#318));
#278=PRESENTATION_STYLE_ASSIGNMENT((#319));
#279=PRESENTATION_STYLE_ASSIGNMENT((#320));
#280=PRESENTATION_STYLE_ASSIGNMENT((#321));
#281=PRESENTATION_STYLE_ASSIGNMENT((#322));
#282=PRESENTATION_STYLE_ASSIGNMENT((#323));
#283=SURFACE_STYLE_USAGE(.BOTH.,#324);
#284=SURFACE_STYLE_USAGE(.BOTH.,#325);
#285=SURFACE_STYLE_USAGE(.BOTH.,#326);
#286=SURFACE_STYLE_USAGE(.BOTH.,#327);
#287=SURFACE_STYLE_USAGE(.BOTH.,#328);
#288=SURFACE_STYLE_USAGE(.BOTH.,#329);
#289=SURFACE_STYLE_USAGE(.BOTH.,#330);
#290=SURFACE_STYLE_USAGE(.BOTH.,#331);
#291=SURFACE_STYLE_USAGE(.BOTH.,#332);
#292=SURFACE_STYLE_USAGE(.BOTH.,#333);
#293=SURFACE_STYLE_USAGE(.BOTH.,#334);
#294=SURFACE_STYLE_USAGE(.BOTH.,#335);
#295=SURFACE_STYLE_USAGE(.BOTH.,#336);
#296=SURFACE_STYLE_USAGE(.BOTH.,#337);
#297=SURFACE_STYLE_USAGE(.BOTH.,#338);
#298=SURFACE_STYLE_USAGE(.BOTH.,#339);
#299=SURFACE_STYLE_USAGE(.BOTH.,#340);
#300=SURFACE_STYLE_USAGE(.BOTH.,#341);
#301=SURFACE_STYLE_USAGE(.BOTH.,#342);
#302=SURFACE_STYLE_USAGE(.BOTH.,#343);
#303=SURFACE_STYLE_USAGE(.BOTH.,#344);
#304=SURFACE_STYLE_USAGE(.BOTH.,#345);
#305=SURFACE_STYLE_USAGE(.BOTH.,#346);
#306=SURFACE_STYLE_USAGE(.BOTH.,#347);
#307=SURFACE_STYLE_USAGE(.BOTH.,#348);
#308=SURFACE_STYLE_USAGE(.BOTH.,#349);
#309=SURFACE_STYLE_USAGE(.BOTH.,#350);
#310=SURFACE_STYLE_USAGE(.BOTH.,#351);
#311=SURFACE_STYLE_USAGE(.BOTH.,#352);
#312=SURFACE_STYLE_USAGE(.BOTH.,#353);
#313=SURFACE_STYLE_USAGE(.BOTH.,#354);
#314=SURFACE_STYLE_USAGE(.BOTH.,#355);
#315=SURFACE_STYLE_USAGE(.BOTH.,#356);
#316=SURFACE_STYLE_USAGE(.BOTH.,#357);
#317=SURFACE_STYLE_USAGE(.BOTH.,#358);
#318=SURFACE_STYLE_USAGE(.BOTH.,#359);
#319=SURFACE_STYLE_USAGE(.BOTH.,#360);
#320=SURFACE_STYLE_USAGE(.BOTH.,#361);
#321=SURFACE_STYLE_USAGE(.BOTH.,#362);
#322=SURFACE_STYLE_USAGE(.BOTH.,#363);
#323=SURFACE_STYLE_USAGE(.BOTH.,#364);
#324=SURFACE_SIDE_STYLE('',(#365));
#325=SURFACE_SIDE_STYLE('',(#366));
#326=SURFACE_SIDE_STYLE('',(#367));
#327=SURFACE_SIDE_STYLE('',(#368));
#328=SURFACE_SIDE_STYLE('',(#369));
#329=SURFACE_SIDE_STYLE('',(#370));
#330=SURFACE_SIDE_STYLE('',(#371));
#331=SURFACE_SIDE_STYLE('',(#372));
#332=SURFACE_SIDE_STYLE('',(#373));
#333=SURFACE_SIDE_STYLE('',(#374));
#334=SURFACE_SIDE_STYLE('',(#375));
#335=SURFACE_SIDE_STYLE('',(#376));
#336=SURFACE_SIDE_STYLE('',(#377));
#337=SURFACE_SIDE_STYLE('',(#378));
#338=SURFACE_SIDE_STYLE('',(#379));
#339=SURFACE_SIDE_STYLE('',(#380));
#340=SURFACE_SIDE_STYLE('',(#381));
#341=SURFACE_SIDE_STYLE('',(#382));
#342=SURFACE_SIDE_STYLE('',(#383));
#343=SURFACE_SIDE_STYLE('',(#384));
#344=SURFACE_SIDE_STYLE('',(#385));
#345=SURFACE_SIDE_STYLE('',(#386));
#346=SURFACE_SIDE_STYLE('',(#387));
#347=SURFACE_SIDE_STYLE('',(#388));
#348=SURFACE_SIDE_STYLE('',(#389));
#349=SURFACE_SIDE_STYLE('',(#390));
#350=SURFACE_SIDE_STYLE('',(#391));
#351=SURFACE_SIDE_STYLE('',(#392));
#352=SURFACE_SIDE_STYLE('',(#393));
#353=SURFACE_SIDE_STYLE('',(#394));
#354=SURFACE_SIDE_STYLE('',(#395));
#355=SURFACE_SIDE_STYLE('',(#396));
#356=SURFACE_SIDE_STYLE('',(#397));
#357=SURFACE_SIDE_STYLE('',(#398));
#358=SURFACE_SIDE_STYLE('',(#399));
#359=SURFACE_SIDE_STYLE('',(#400));
#360=SURFACE_SIDE_STYLE('',(#401));
#361=SURFACE_SIDE_STYLE('',(#402));
#362=SURFACE_SIDE_STYLE('',(#403));
#363=SURFACE_SIDE_STYLE('',(#404));
#364=SURFACE_SIDE_STYLE('',(#405));
#365=SURFACE_STYLE_FILL_AREA(#406);
#366=SURFACE_STYLE_FILL_AREA(#407);
#367=SURFACE_STYLE_FILL_AREA(#408);
#368=SURFACE_STYLE_FILL_AREA(#409);
#369=SURFACE_STYLE_FILL_AREA(#410);
#370=SURFACE_STYLE_FILL_AREA(#411);
#371=SURFACE_STYLE_FILL_AREA(#412);
#372=SURFACE_STYLE_FILL_AREA(#413);
#373=SURFACE_STYLE_FILL_AREA(#414);
#374=SURFACE_STYLE_FILL_AREA(#415);
#375=SURFACE_STYLE_FILL_AREA(#416);
#376=SURFACE_STYLE_FILL_AREA(#417);
#377=SURFACE_STYLE_FILL_AREA(#418);
#378=SURFACE_STYLE_FILL_AREA(#419);
#379=SURFACE_STYLE_FILL_AREA(#420);
#380=SURFACE_STYLE_FILL_AREA(#421);
#381=SURFACE_STYLE_FILL_AREA(#422);
#382=SURFACE_STYLE_FILL_AREA(#423);
#383=SURFACE_STYLE_FILL_AREA(#424);
#384=SURFACE_STYLE_FILL_AREA(#425);
#385=SURFACE_STYLE_FILL_AREA(#426);
#386=SURFACE_STYLE_FILL_AREA(#427);
#387=SURFACE_STYLE_FILL_AREA(#428);
#388=SURFACE_STYLE_FILL_AREA(#429);
#389=SURFACE_STYLE_FILL_AREA(#430);
#390=SURFACE_STYLE_FILL_AREA(#431);
#391=SURFACE_STYLE_FILL_AREA(#432);
#392=SURFACE_STYLE_FILL_AREA(#433);
#393=SURFACE_STYLE_FILL_AREA(#434);
#394=SURFACE_STYLE_FILL_AREA(#435);
#395=SURFACE_STYLE_FILL_AREA(#436);
#396=SURFACE_STYLE_FILL_AREA(#437);
#397=SURFACE_STYLE_FILL_AREA(#438);
#398=SURFACE_STYLE_FILL_AREA(#439);
#399=SURFACE_STYLE_FILL_AREA(#440);
#400=SURFACE_STYLE_FILL_AREA(#441);
#401=SURFACE_STYLE_FILL_AREA(#442);
#402=SURFACE_STYLE_FILL_AREA(#443);
#403=SURFACE_STYLE_FILL_AREA(#444);
#404=SURFACE_STYLE_FILL_AREA(#445);
#405=SURFACE_STYLE_FILL_AREA(#446);
#406=FILL_AREA_STYLE('Steel - Satin',(#447));
#407=FILL_AREA_STYLE('Opaque(0,128,0)',(#448));
#408=FILL_AREA_STYLE('Opaque(202,209,238)',(#449));
#409=FILL_AREA_STYLE('Opaque(255,255,255)',(#450));
#410=FILL_AREA_STYLE('Opaque(18,18,18)',(#451));
#411=FILL_AREA_STYLE('Opaque(228,228,228)',(#452));
#412=FILL_AREA_STYLE('Opaque(51,51,51)',(#453));
#413=FILL_AREA_STYLE('Opaque(204,204,204)',(#454));
#414=FILL_AREA_STYLE('Opaque(100,52,4)',(#455));
#415=FILL_AREA_STYLE('Opaque(128,128,128)',(#456));
#416=FILL_AREA_STYLE('Opaque(40,40,40)',(#457));
#417=FILL_AREA_STYLE('Opaque(227,227,227)',(#458));
#418=FILL_AREA_STYLE('Opaque(82,82,82)',(#459));
#419=FILL_AREA_STYLE('Opaque(209,204,192)',(#460));
#420=FILL_AREA_STYLE('Opaque(255,251,251)',(#461));
#421=FILL_AREA_STYLE('Opaque(183,183,183)',(#462));
#422=FILL_AREA_STYLE('Opaque(53,53,53)',(#463));
#423=FILL_AREA_STYLE('Opaque(255,207,128)',(#464));
#424=FILL_AREA_STYLE('Opaque(0,32,0)',(#465));
#425=FILL_AREA_STYLE('Opaque(168,168,168)',(#466));
#426=FILL_AREA_STYLE('Opaque(225,225,225)',(#467));
#427=FILL_AREA_STYLE('Opaque(105,105,105)',(#468));
#428=FILL_AREA_STYLE('Opaque(190,190,190)',(#469));
#429=FILL_AREA_STYLE('Opaque(64,64,64)',(#470));
#430=FILL_AREA_STYLE('Opaque(247,247,247)',(#471));
#431=FILL_AREA_STYLE('Opaque(192,192,192)',(#472));
#432=FILL_AREA_STYLE('Opaque(75,75,75)',(#473));
#433=FILL_AREA_STYLE('Opaque(196,196,196)',(#474));
#434=FILL_AREA_STYLE('Opaque(24,24,24)',(#475));
#435=FILL_AREA_STYLE('Opaque(136,136,136)',(#476));
#436=FILL_AREA_STYLE('Opaque(63,63,63)',(#477));
#437=FILL_AREA_STYLE('Opaque(195,53,38)',(#478));
#438=FILL_AREA_STYLE('Opaque(153,153,153)',(#479));
#439=FILL_AREA_STYLE('Opaque(255,205,126)',(#480));
#440=FILL_AREA_STYLE('Opaque(67,67,67)',(#481));
#441=FILL_AREA_STYLE('Opaque(26,26,26)',(#482));
#442=FILL_AREA_STYLE('Opaque(31,124,255)',(#483));
#443=FILL_AREA_STYLE('Opaque(255,0,0)',(#484));
#444=FILL_AREA_STYLE('ABS (White)',(#485));
#445=FILL_AREA_STYLE('ABS (White)',(#486));
#446=FILL_AREA_STYLE('ABS (White)',(#487));
#447=FILL_AREA_STYLE_COLOUR('Steel - Satin',#488);
#448=FILL_AREA_STYLE_COLOUR('Opaque(0,128,0)',#489);
#449=FILL_AREA_STYLE_COLOUR('Opaque(202,209,238)',#490);
#450=FILL_AREA_STYLE_COLOUR('Opaque(255,255,255)',#491);
#451=FILL_AREA_STYLE_COLOUR('Opaque(18,18,18)',#492);
#452=FILL_AREA_STYLE_COLOUR('Opaque(228,228,228)',#493);
#453=FILL_AREA_STYLE_COLOUR('Opaque(51,51,51)',#494);
#454=FILL_AREA_STYLE_COLOUR('Opaque(204,204,204)',#495);
#455=FILL_AREA_STYLE_COLOUR('Opaque(100,52,4)',#496);
#456=FILL_AREA_STYLE_COLOUR('Opaque(128,128,128)',#497);
#457=FILL_AREA_STYLE_COLOUR('Opaque(40,40,40)',#498);
#458=FILL_AREA_STYLE_COLOUR('Opaque(227,227,227)',#499);
#459=FILL_AREA_STYLE_COLOUR('Opaque(82,82,82)',#500);
#460=FILL_AREA_STYLE_COLOUR('Opaque(209,204,192)',#501);
#461=FILL_AREA_STYLE_COLOUR('Opaque(255,251,251)',#502);
#462=FILL_AREA_STYLE_COLOUR('Opaque(183,183,183)',#503);
#463=FILL_AREA_STYLE_COLOUR('Opaque(53,53,53)',#504);
#464=FILL_AREA_STYLE_COLOUR('Opaque(255,207,128)',#505);
#465=FILL_AREA_STYLE_COLOUR('Opaque(0,32,0)',#506);
#466=FILL_AREA_STYLE_COLOUR('Opaque(168,168,168)',#507);
#467=FILL_AREA_STYLE_COLOUR('Opaque(225,225,225)',#508);
#468=FILL_AREA_STYLE_COLOUR('Opaque(105,105,105)',#509);
#469=FILL_AREA_STYLE_COLOUR('Opaque(190,190,190)',#510);
#470=FILL_AREA_STYLE_COLOUR('Opaque(64,64,64)',#511);
#471=FILL_AREA_STYLE_COLOUR('Opaque(247,247,247)',#512);
#472=FILL_AREA_STYLE_COLOUR('Opaque(192,192,192)',#513);
#473=FILL_AREA_STYLE_COLOUR('Opaque(75,75,75)',#514);
#474=FILL_AREA_STYLE_COLOUR('Opaque(196,196,196)',#515);
#475=FILL_AREA_STYLE_COLOUR('Opaque(24,24,24)',#516);
#476=FILL_AREA_STYLE_COLOUR('Opaque(136,136,136)',#517);
#477=FILL_AREA_STYLE_COLOUR('Opaque(63,63,63)',#518);
#478=FILL_AREA_STYLE_COLOUR('Opaque(195,53,38)',#519);
#479=FILL_AREA_STYLE_COLOUR('Opaque(153,153,153)',#520);
#480=FILL_AREA_STYLE_COLOUR('Opaque(255,205,126)',#521);
#481=FILL_AREA_STYLE_COLOUR('Opaque(67,67,67)',#522);
#482=FILL_AREA_STYLE_COLOUR('Opaque(26,26,26)',#523);
#483=FILL_AREA_STYLE_COLOUR('Opaque(31,124,255)',#524);
#484=FILL_AREA_STYLE_COLOUR('Opaque(255,0,0)',#525);
#485=FILL_AREA_STYLE_COLOUR('ABS (White)',#526);
#486=FILL_AREA_STYLE_COLOUR('ABS (White)',#527);
#487=FILL_AREA_STYLE_COLOUR('ABS (White)',#528);
#488=COLOUR_RGB('Steel - Satin',0.627450980392157,0.627450980392157,0.627450980392157);
#489=COLOUR_RGB('Opaque(0,128,0)',0.,0.501960784313725,0.);
#490=COLOUR_RGB('Opaque(202,209,238)',0.792156862745098,0.819607843137255,
0.933333333333333);
#491=COLOUR_RGB('Opaque(255,255,255)',1.,1.,1.);
#492=COLOUR_RGB('Opaque(18,18,18)',0.0705882352941176,0.0705882352941176,
0.0705882352941176);
#493=COLOUR_RGB('Opaque(228,228,228)',0.894117647058824,0.894117647058824,
0.894117647058824);
#494=COLOUR_RGB('Opaque(51,51,51)',0.2,0.2,0.2);
#495=COLOUR_RGB('Opaque(204,204,204)',0.8,0.8,0.8);
#496=COLOUR_RGB('Opaque(100,52,4)',0.392156862745098,0.203921568627451,
0.0156862745098039);
#497=COLOUR_RGB('Opaque(128,128,128)',0.501960784313725,0.501960784313725,
0.501960784313725);
#498=COLOUR_RGB('Opaque(40,40,40)',0.156862745098039,0.156862745098039,
0.156862745098039);
#499=COLOUR_RGB('Opaque(227,227,227)',0.890196078431372,0.890196078431372,
0.890196078431372);
#500=COLOUR_RGB('Opaque(82,82,82)',0.32156862745098,0.32156862745098,0.32156862745098);
#501=COLOUR_RGB('Opaque(209,204,192)',0.819607843137255,0.8,0.752941176470588);
#502=COLOUR_RGB('Opaque(255,251,251)',1.,0.984313725490196,0.984313725490196);
#503=COLOUR_RGB('Opaque(183,183,183)',0.717647058823529,0.717647058823529,
0.717647058823529);
#504=COLOUR_RGB('Opaque(53,53,53)',0.207843137254902,0.207843137254902,
0.207843137254902);
#505=COLOUR_RGB('Opaque(255,207,128)',1.,0.811764705882353,0.501960784313725);
#506=COLOUR_RGB('Opaque(0,32,0)',0.,0.125490196078431,0.);
#507=COLOUR_RGB('Opaque(168,168,168)',0.658823529411765,0.658823529411765,
0.658823529411765);
#508=COLOUR_RGB('Opaque(225,225,225)',0.882352941176471,0.882352941176471,
0.882352941176471);
#509=COLOUR_RGB('Opaque(105,105,105)',0.411764705882353,0.411764705882353,
0.411764705882353);
#510=COLOUR_RGB('Opaque(190,190,190)',0.745098039215686,0.745098039215686,
0.745098039215686);
#511=COLOUR_RGB('Opaque(64,64,64)',0.250980392156863,0.250980392156863,
0.250980392156863);
#512=COLOUR_RGB('Opaque(247,247,247)',0.968627450980392,0.968627450980392,
0.968627450980392);
#513=COLOUR_RGB('Opaque(192,192,192)',0.752941176470588,0.752941176470588,
0.752941176470588);
#514=COLOUR_RGB('Opaque(75,75,75)',0.294117647058824,0.294117647058824,
0.294117647058824);
#515=COLOUR_RGB('Opaque(196,196,196)',0.768627450980392,0.768627450980392,
0.768627450980392);
#516=COLOUR_RGB('Opaque(24,24,24)',0.0941176470588235,0.0941176470588235,
0.0941176470588235);
#517=COLOUR_RGB('Opaque(136,136,136)',0.533333333333333,0.533333333333333,
0.533333333333333);
#518=COLOUR_RGB('Opaque(63,63,63)',0.250980392156863,0.250980392156863,
0.250980392156863);
#519=COLOUR_RGB('Opaque(195,53,38)',0.764705882352941,0.207843137254902,
0.149019607843137);
#520=COLOUR_RGB('Opaque(153,153,153)',0.6,0.6,0.6);
#521=COLOUR_RGB('Opaque(255,205,126)',1.,0.803921568627451,0.494117647058824);
#522=COLOUR_RGB('Opaque(67,67,67)',0.262745098039216,0.262745098039216,
0.262745098039216);
#523=COLOUR_RGB('Opaque(26,26,26)',0.101960784313725,0.101960784313725,
0.101960784313725);
#524=COLOUR_RGB('Opaque(31,124,255)',0.12156862745098,0.486274509803922,
1.);
#525=COLOUR_RGB('Opaque(255,0,0)',1.,0.,0.);
#526=COLOUR_RGB('ABS (White)',0.286274509803922,0.749019607843137,0.749019607843137);
#527=COLOUR_RGB('ABS (White)',0.411764705882353,0.286274509803922,0.203921568627451);
#528=COLOUR_RGB('ABS (White)',0.768627450980392,0.619607843137255,0.27843137254902);
ENDSEC;
END-ISO-10303-21;
